<svg xmlns="http://www.w3.org/2000/svg" viewBox="0 0 44 54" role="img" aria-label="Baobá — símbolo Ana Celeste PhD">
  <title>Baobá Ana Celeste PhD</title>

  <!-- Raízes -->
  <path d="M15 50 Q11 52 8 54" stroke="#4A6B5D" stroke-width="1.1" fill="none" stroke-linecap="round" opacity="0.55"/>
  <path d="M22 51 L22 54"      stroke="#4A6B5D" stroke-width="1.1" fill="none" stroke-linecap="round" opacity="0.55"/>
  <path d="M29 50 Q33 52 36 54" stroke="#4A6B5D" stroke-width="1.1" fill="none" stroke-linecap="round" opacity="0.55"/>

  <!-- Tronco — forma orgânica de baobá -->
  <path d="M14 50
           C12 43 12 36 14 30
           C12 26 11 22  9 17
           L13 14 L17 11
           L22  9 L27 11 L31 14
           L35 17 C33 22 32 26 30 30
           C32 36 32 43 30 50 Z"
        fill="#354E46"/>

  <!-- Galhos -->
  <path d="M11 19 Q 4 13  3  6" stroke="#354E46" stroke-width="2.4" fill="none" stroke-linecap="round"/>
  <path d="M33 19 Q40 13 41  6" stroke="#354E46" stroke-width="2.4" fill="none" stroke-linecap="round"/>
  <path d="M22 10 L22  2"       stroke="#354E46" stroke-width="2.0" fill="none" stroke-linecap="round"/>
  <path d="M17 13 Q12  7 10  3" stroke="#354E46" stroke-width="1.7" fill="none" stroke-linecap="round"/>
  <path d="M27 13 Q32  7 34  3" stroke="#354E46" stroke-width="1.7" fill="none" stroke-linecap="round"/>

  <!-- Copa — folhas verde-sálvia -->
  <ellipse cx="22" cy="4"  rx="6.5" ry="5.0" fill="#4A6B5D"/>
  <ellipse cx="11" cy="6"  rx="5.5" ry="4.5" fill="#4A6B5D"/>
  <ellipse cx="33" cy="6"  rx="5.5" ry="4.5" fill="#4A6B5D"/>
  <ellipse cx=" 4" cy="9"  rx="4.0" ry="4.0" fill="#5C7D70"/>
  <ellipse cx="40" cy="9"  rx="4.0" ry="4.0" fill="#5C7D70"/>
  <ellipse cx="16" cy="2"  rx="4.0" ry="3.5" fill="#5C7D70"/>
  <ellipse cx="28" cy="2"  rx="4.0" ry="3.5" fill="#5C7D70"/>

  <!-- Folha de destaque — odontologia (acento quente) -->
  <ellipse cx="7" cy="16" rx="4.5" ry="2.8" fill="#C4A882" transform="rotate(-38 7 16)"/>
</svg>
